# Blender 4.0.1
# www.blender.org
mtllib cylinder.mtl
o Cylinder
v -0.000000 -0.998482 -0.997016
v -0.000000 0.998482 -0.997016
v 0.194508 -0.998482 -0.977859
v 0.194508 0.998482 -0.977859
v 0.381542 -0.998482 -0.921123
v 0.381542 0.998482 -0.921123
v 0.553913 -0.998482 -0.828989
v 0.553913 0.998482 -0.828989
v 0.704997 -0.998482 -0.704997
v 0.704997 0.998482 -0.704997
v 0.828989 -0.998482 -0.553913
v 0.828989 0.998482 -0.553913
v 0.921123 -0.998482 -0.381542
v 0.921123 0.998482 -0.381542
v 0.977859 -0.998482 -0.194508
v 0.977859 0.998482 -0.194508
v 0.997016 -0.998482 -0.000000
v 0.997016 0.998482 -0.000000
v 0.977859 -0.998482 0.194508
v 0.977859 0.998482 0.194508
v 0.921123 -0.998482 0.381542
v 0.921123 0.998482 0.381542
v 0.828989 -0.998482 0.553913
v 0.828989 0.998482 0.553913
v 0.704997 -0.998482 0.704997
v 0.704997 0.998482 0.704997
v 0.553913 -0.998482 0.828989
v 0.553913 0.998482 0.828989
v 0.381542 -0.998482 0.921123
v 0.381542 0.998482 0.921123
v 0.194508 -0.998482 0.977859
v 0.194508 0.998482 0.977859
v 0.000000 -0.998482 0.997016
v 0.000000 0.998482 0.997016
v -0.194508 -0.998482 0.977859
v -0.194508 0.998482 0.977859
v -0.381542 -0.998482 0.921123
v -0.381542 0.998482 0.921123
v -0.553913 -0.998482 0.828989
v -0.553913 0.998482 0.828989
v -0.704997 -0.998482 0.704997
v -0.704997 0.998482 0.704997
v -0.828989 -0.998482 0.553913
v -0.828989 0.998482 0.553913
v -0.921123 -0.998482 0.381542
v -0.921123 0.998482 0.381542
v -0.977859 -0.998482 0.194508
v -0.977859 0.998482 0.194508
v -0.997016 -0.998482 0.000000
v -0.997016 0.998482 0.000000
v -0.977859 -0.998482 -0.194508
v -0.977859 0.998482 -0.194508
v -0.921123 -0.998482 -0.381542
v -0.921123 0.998482 -0.381542
v -0.828989 -0.998482 -0.553913
v -0.828989 0.998482 -0.553913
v -0.704997 -0.998482 -0.704997
v -0.704997 0.998482 -0.704997
v -0.553913 -0.998482 -0.828989
v -0.553913 0.998482 -0.828989
v -0.381542 -0.998482 -0.921123
v -0.381542 0.998482 -0.921123
v -0.194508 -0.998482 -0.977859
v -0.194508 0.998482 -0.977859
v 0.097683 -1.001411 -0.991790
v 0.097683 1.001411 -0.991790
v -0.000000 -0.000000 -0.998285
v 0.194756 0.000000 -0.979104
v 0.289294 -1.001411 -0.953676
v 0.289294 1.001411 -0.953676
v 0.382027 0.000000 -0.922295
v 0.469789 -1.001411 -0.878913
v 0.469789 1.001411 -0.878913
v 0.554618 0.000000 -0.830044
v 0.632229 -1.001411 -0.770373
v 0.632229 1.001411 -0.770373
v 0.705894 0.000000 -0.705894
v 0.770373 -1.001411 -0.632229
v 0.770373 1.001411 -0.632229
v 0.830044 0.000000 -0.554618
v 0.878913 -1.001411 -0.469789
v 0.878913 1.001411 -0.469789
v 0.922295 0.000000 -0.382027
v 0.953676 -1.001411 -0.289294
v 0.953676 1.001411 -0.289294
v 0.979104 -0.000000 -0.194756
v 0.991790 -1.001411 -0.097683
v 0.991790 1.001411 -0.097683
v 0.998285 0.000000 -0.000000
v 0.991790 -1.001411 0.097683
v 0.991790 1.001411 0.097683
v 0.979104 0.000000 0.194756
v 0.953676 -1.001411 0.289294
v 0.953676 1.001411 0.289294
v 0.922295 0.000000 0.382027
v 0.878913 -1.001411 0.469789
v 0.878913 1.001411 0.469789
v 0.830044 0.000000 0.554618
v 0.770373 -1.001411 0.632229
v 0.770373 1.001411 0.632229
v 0.705894 0.000000 0.705894
v 0.632229 -1.001411 0.770373
v 0.632229 1.001411 0.770373
v 0.554618 0.000000 0.830044
v 0.469789 -1.001411 0.878913
v 0.469789 1.001411 0.878913
v 0.382027 0.000000 0.922295
v 0.289294 -1.001411 0.953676
v 0.289294 1.001411 0.953676
v 0.194756 -0.000000 0.979104
v 0.097683 -1.001411 0.991790
v 0.097683 1.001411 0.991790
v 0.000000 0.000000 0.998285
v -0.097683 -1.001411 0.991790
v -0.097683 1.001411 0.991790
v -0.194756 0.000000 0.979104
v -0.289294 -1.001411 0.953676
v -0.289294 1.001411 0.953676
v -0.382027 0.000000 0.922295
v -0.469789 -1.001411 0.878913
v -0.469789 1.001411 0.878913
v -0.554618 0.000000 0.830044
v -0.632229 -1.001411 0.770373
v -0.632229 1.001411 0.770373
v -0.705894 0.000000 0.705894
v -0.770373 -1.001411 0.632229
v -0.770373 1.001411 0.632229
v -0.830044 0.000000 0.554618
v -0.878913 -1.001411 0.469789
v -0.878913 1.001411 0.469789
v -0.922295 0.000000 0.382027
v -0.953676 -1.001411 0.289294
v -0.953676 1.001411 0.289294
v -0.979104 -0.000000 0.194756
v -0.991790 -1.001411 0.097683
v -0.991790 1.001411 0.097683
v -0.998285 0.000000 0.000000
v -0.991790 -1.001411 -0.097683
v -0.991790 1.001411 -0.097683
v -0.979104 0.000000 -0.194756
v -0.953676 -1.001411 -0.289294
v -0.953676 1.001411 -0.289294
v -0.922295 0.000000 -0.382027
v -0.878913 -1.001411 -0.469789
v -0.878913 1.001411 -0.469789
v -0.830044 0.000000 -0.554618
v -0.770373 -1.001411 -0.632229
v -0.770373 1.001411 -0.632229
v -0.705894 0.000000 -0.705894
v -0.632229 -1.001411 -0.770373
v -0.632229 1.001411 -0.770373
v -0.554618 0.000000 -0.830044
v -0.469789 -1.001411 -0.878913
v -0.469789 1.001411 -0.878913
v -0.382027 0.000000 -0.922295
v -0.289294 -1.001411 -0.953676
v -0.289294 1.001411 -0.953676
v -0.194756 -0.000000 -0.979104
v -0.097683 -1.001411 -0.991790
v -0.097683 1.001411 -0.991790
v -0.097593 -0.000000 -0.990875
v -0.289028 0.000000 -0.952796
v -0.469355 0.000000 -0.878102
v -0.631646 0.000000 -0.769663
v -0.769663 0.000000 -0.631646
v -0.878102 0.000000 -0.469355
v -0.952796 0.000000 -0.289028
v -0.990875 0.000000 -0.097593
v -0.990875 -0.000000 0.097593
v -0.952796 0.000000 0.289028
v -0.878102 0.000000 0.469355
v -0.769663 0.000000 0.631646
v -0.631646 0.000000 0.769663
v -0.469355 0.000000 0.878102
v -0.289028 0.000000 0.952796
v -0.097593 0.000000 0.990875
v 0.097593 -0.000000 0.990875
v 0.289028 0.000000 0.952796
v 0.469355 0.000000 0.878102
v 0.631646 0.000000 0.769663
v 0.769663 0.000000 0.631646
v 0.878102 0.000000 0.469355
v 0.952796 0.000000 0.289028
v 0.990875 0.000000 0.097593
v 0.990875 -0.000000 -0.097593
v 0.952796 0.000000 -0.289028
v 0.878102 0.000000 -0.469355
v 0.769663 0.000000 -0.631646
v 0.631646 0.000000 -0.769663
v 0.469355 0.000000 -0.878102
v 0.289028 0.000000 -0.952796
v 0.097593 0.000000 -0.990875
vn 0.1313 0.0002 -0.9913
vn 0.3222 0.0002 -0.9467
vn 0.5007 0.0002 -0.8656
vn 0.6600 0.0002 -0.7513
vn 0.7939 0.0002 -0.6081
vn 0.8972 0.0002 -0.4415
vn 0.9661 0.0002 -0.2580
vn 0.9979 0.0002 -0.0646
vn 0.9913 0.0002 0.1313
vn 0.9467 0.0002 0.3222
vn 0.8656 0.0002 0.5007
vn 0.7513 0.0002 0.6600
vn 0.6081 0.0002 0.7939
vn 0.4415 0.0002 0.8972
vn 0.2580 0.0002 0.9661
vn 0.0646 0.0002 0.9979
vn -0.1313 0.0002 0.9913
vn -0.3222 0.0002 0.9467
vn -0.5007 0.0002 0.8656
vn -0.6600 0.0002 0.7513
vn -0.7939 0.0002 0.6081
vn -0.8972 0.0002 0.4415
vn -0.9661 0.0002 0.2580
vn -0.9979 0.0002 0.0646
vn -0.9913 0.0002 -0.1313
vn -0.9467 0.0002 -0.3222
vn -0.8656 0.0002 -0.5007
vn -0.7513 0.0002 -0.6600
vn -0.6081 0.0002 -0.7939
vn -0.4415 0.0002 -0.8972
vn -0.0000 1.0000 -0.0000
vn -0.2580 0.0002 -0.9661
vn -0.0646 0.0002 -0.9979
vn -0.0000 -1.0000 -0.0000
vn -0.0646 -0.0002 -0.9979
vn -0.1313 -0.0002 -0.9913
vn -0.1313 0.0002 -0.9913
vn -0.2580 -0.0002 -0.9661
vn -0.3222 -0.0002 -0.9467
vn -0.3222 0.0002 -0.9467
vn -0.4415 -0.0002 -0.8972
vn -0.5007 -0.0002 -0.8656
vn -0.5007 0.0002 -0.8656
vn -0.6081 -0.0002 -0.7939
vn -0.6600 -0.0002 -0.7513
vn -0.6600 0.0002 -0.7513
vn -0.7513 -0.0002 -0.6600
vn -0.7939 -0.0002 -0.6081
vn -0.7939 0.0002 -0.6081
vn -0.8656 -0.0002 -0.5007
vn -0.8972 -0.0002 -0.4415
vn -0.8972 0.0002 -0.4415
vn -0.9467 -0.0002 -0.3222
vn -0.9661 -0.0002 -0.2580
vn -0.9661 0.0002 -0.2580
vn -0.9913 -0.0002 -0.1313
vn -0.9979 -0.0002 -0.0646
vn -0.9979 0.0002 -0.0646
vn -0.9979 -0.0002 0.0646
vn -0.9913 -0.0002 0.1313
vn -0.9913 0.0002 0.1313
vn -0.9661 -0.0002 0.2580
vn -0.9467 -0.0002 0.3222
vn -0.9467 0.0002 0.3222
vn -0.8972 -0.0002 0.4415
vn -0.8656 -0.0002 0.5007
vn -0.8656 0.0002 0.5007
vn -0.7939 -0.0002 0.6081
vn -0.7513 -0.0002 0.6600
vn -0.7513 0.0002 0.6600
vn -0.6600 -0.0002 0.7513
vn -0.6081 -0.0002 0.7939
vn -0.6081 0.0002 0.7939
vn -0.5007 -0.0002 0.8656
vn -0.4415 -0.0002 0.8972
vn -0.4415 0.0002 0.8972
vn -0.3222 -0.0002 0.9467
vn -0.2580 -0.0002 0.9661
vn -0.2580 0.0002 0.9661
vn -0.1313 -0.0002 0.9913
vn -0.0646 -0.0002 0.9979
vn -0.0646 0.0002 0.9979
vn 0.0646 -0.0002 0.9979
vn 0.1313 -0.0002 0.9913
vn 0.1313 0.0002 0.9913
vn 0.2580 -0.0002 0.9661
vn 0.3222 -0.0002 0.9467
vn 0.3222 0.0002 0.9467
vn 0.4415 -0.0002 0.8972
vn 0.5007 -0.0002 0.8656
vn 0.5007 0.0002 0.8656
vn 0.6081 -0.0002 0.7939
vn 0.6600 -0.0002 0.7513
vn 0.6600 0.0002 0.7513
vn 0.7513 -0.0002 0.6600
vn 0.7939 -0.0002 0.6081
vn 0.7939 0.0002 0.6081
vn 0.8656 -0.0002 0.5007
vn 0.8972 -0.0002 0.4415
vn 0.8972 0.0002 0.4415
vn 0.9467 -0.0002 0.3222
vn 0.9661 -0.0002 0.2580
vn 0.9661 0.0002 0.2580
vn 0.9913 -0.0002 0.1313
vn 0.9979 -0.0002 0.0646
vn 0.9979 0.0002 0.0646
vn 0.9979 -0.0002 -0.0646
vn 0.9913 -0.0002 -0.1313
vn 0.9913 0.0002 -0.1313
vn 0.9661 -0.0002 -0.2580
vn 0.9467 -0.0002 -0.3222
vn 0.9467 0.0002 -0.3222
vn 0.8972 -0.0002 -0.4415
vn 0.8656 -0.0002 -0.5007
vn 0.8656 0.0002 -0.5007
vn 0.7939 -0.0002 -0.6081
vn 0.7513 -0.0002 -0.6600
vn 0.7513 0.0002 -0.6600
vn 0.6600 -0.0002 -0.7513
vn 0.6081 -0.0002 -0.7939
vn 0.6081 0.0002 -0.7939
vn 0.5007 -0.0002 -0.8656
vn 0.4415 -0.0002 -0.8972
vn 0.4415 0.0002 -0.8972
vn 0.3222 -0.0002 -0.9467
vn 0.2580 -0.0002 -0.9661
vn 0.2580 0.0002 -0.9661
vn 0.1313 -0.0002 -0.9913
vn 0.0646 -0.0002 -0.9979
vn 0.0646 0.0002 -0.9979
vt 0.984375 0.750000
vt 0.984375 1.000000
vt 0.968750 1.000000
vt 0.968750 0.750000
vt 0.953125 0.750000
vt 0.953125 1.000000
vt 0.937500 1.000000
vt 0.937500 0.750000
vt 0.921875 0.750000
vt 0.921875 1.000000
vt 0.906250 1.000000
vt 0.906250 0.750000
vt 0.890625 0.750000
vt 0.890625 1.000000
vt 0.875000 1.000000
vt 0.875000 0.750000
vt 0.859375 0.750000
vt 0.859375 1.000000
vt 0.843750 1.000000
vt 0.843750 0.750000
vt 0.828125 0.750000
vt 0.828125 1.000000
vt 0.812500 1.000000
vt 0.812500 0.750000
vt 0.796875 0.750000
vt 0.796875 1.000000
vt 0.781250 1.000000
vt 0.781250 0.750000
vt 0.765625 0.750000
vt 0.765625 1.000000
vt 0.750000 1.000000
vt 0.750000 0.750000
vt 0.734375 0.750000
vt 0.734375 1.000000
vt 0.718750 1.000000
vt 0.718750 0.750000
vt 0.703125 0.750000
vt 0.703125 1.000000
vt 0.687500 1.000000
vt 0.687500 0.750000
vt 0.671875 0.750000
vt 0.671875 1.000000
vt 0.656250 1.000000
vt 0.656250 0.750000
vt 0.640625 0.750000
vt 0.640625 1.000000
vt 0.625000 1.000000
vt 0.625000 0.750000
vt 0.609375 0.750000
vt 0.609375 1.000000
vt 0.593750 1.000000
vt 0.593750 0.750000
vt 0.578125 0.750000
vt 0.578125 1.000000
vt 0.562500 1.000000
vt 0.562500 0.750000
vt 0.546875 0.750000
vt 0.546875 1.000000
vt 0.531250 1.000000
vt 0.531250 0.750000
vt 0.515625 0.750000
vt 0.515625 1.000000
vt 0.500000 1.000000
vt 0.500000 0.750000
vt 0.484375 0.750000
vt 0.484375 1.000000
vt 0.468750 1.000000
vt 0.468750 0.750000
vt 0.453125 0.750000
vt 0.453125 1.000000
vt 0.437500 1.000000
vt 0.437500 0.750000
vt 0.421875 0.750000
vt 0.421875 1.000000
vt 0.406250 1.000000
vt 0.406250 0.750000
vt 0.390625 0.750000
vt 0.390625 1.000000
vt 0.375000 1.000000
vt 0.375000 0.750000
vt 0.359375 0.750000
vt 0.359375 1.000000
vt 0.343750 1.000000
vt 0.343750 0.750000
vt 0.328125 0.750000
vt 0.328125 1.000000
vt 0.312500 1.000000
vt 0.312500 0.750000
vt 0.296875 0.750000
vt 0.296875 1.000000
vt 0.281250 1.000000
vt 0.281250 0.750000
vt 0.265625 0.750000
vt 0.265625 1.000000
vt 0.250000 1.000000
vt 0.250000 0.750000
vt 0.234375 0.750000
vt 0.234375 1.000000
vt 0.218750 1.000000
vt 0.218750 0.750000
vt 0.203125 0.750000
vt 0.203125 1.000000
vt 0.187500 1.000000
vt 0.187500 0.750000
vt 0.171875 0.750000
vt 0.171875 1.000000
vt 0.156250 1.000000
vt 0.156250 0.750000
vt 0.140625 0.750000
vt 0.140625 1.000000
vt 0.125000 1.000000
vt 0.125000 0.750000
vt 0.109375 0.750000
vt 0.109375 1.000000
vt 0.093750 1.000000
vt 0.093750 0.750000
vt 0.078125 0.750000
vt 0.078125 1.000000
vt 0.062500 1.000000
vt 0.062500 0.750000
vt 0.296822 0.485388
vt 0.273411 0.487694
vt 0.250000 0.490000
vt 0.226589 0.487694
vt 0.203178 0.485388
vt 0.180667 0.478560
vt 0.158156 0.471731
vt 0.137410 0.460642
vt 0.116663 0.449553
vt 0.098479 0.434629
vt 0.080294 0.419706
vt 0.065371 0.401521
vt 0.050447 0.383337
vt 0.039358 0.362590
vt 0.028269 0.341844
vt 0.021440 0.319333
vt 0.014612 0.296822
vt 0.012306 0.273411
vt 0.010000 0.250000
vt 0.012306 0.226589
vt 0.014612 0.203178
vt 0.021440 0.180667
vt 0.028269 0.158156
vt 0.039358 0.137410
vt 0.050447 0.116663
vt 0.065371 0.098479
vt 0.080294 0.080294
vt 0.098479 0.065371
vt 0.116663 0.050447
vt 0.137410 0.039358
vt 0.158156 0.028269
vt 0.180667 0.021440
vt 0.203178 0.014612
vt 0.226589 0.012306
vt 0.250000 0.010000
vt 0.273411 0.012306
vt 0.296822 0.014612
vt 0.319333 0.021440
vt 0.341844 0.028269
vt 0.362590 0.039358
vt 0.383337 0.050447
vt 0.401521 0.065371
vt 0.419706 0.080294
vt 0.434629 0.098479
vt 0.449553 0.116663
vt 0.460642 0.137410
vt 0.471731 0.158156
vt 0.478560 0.180667
vt 0.485388 0.203178
vt 0.487694 0.226589
vt 0.490000 0.250000
vt 0.487694 0.273411
vt 0.485388 0.296822
vt 0.478560 0.319333
vt 0.471731 0.341844
vt 0.460642 0.362590
vt 0.449553 0.383337
vt 0.434629 0.401521
vt 0.419706 0.419706
vt 0.401521 0.434629
vt 0.383337 0.449553
vt 0.362590 0.460642
vt 0.341844 0.471731
vt 0.319333 0.478560
vt 0.046875 0.750000
vt 0.046875 1.000000
vt 0.031250 1.000000
vt 0.031250 0.750000
vt 0.015625 0.750000
vt 0.015625 1.000000
vt 0.000000 1.000000
vt 0.000000 0.750000
vt 0.750000 0.490000
vt 0.773411 0.487694
vt 0.796822 0.485388
vt 0.819333 0.478560
vt 0.841844 0.471731
vt 0.862590 0.460642
vt 0.883337 0.449553
vt 0.901521 0.434629
vt 0.919706 0.419706
vt 0.934629 0.401521
vt 0.949553 0.383337
vt 0.960642 0.362590
vt 0.971731 0.341844
vt 0.978560 0.319333
vt 0.985388 0.296822
vt 0.987694 0.273411
vt 0.990000 0.250000
vt 0.987694 0.226589
vt 0.985388 0.203178
vt 0.978560 0.180667
vt 0.971731 0.158156
vt 0.960642 0.137410
vt 0.949553 0.116663
vt 0.934629 0.098479
vt 0.919706 0.080294
vt 0.901521 0.065371
vt 0.883337 0.050447
vt 0.862590 0.039358
vt 0.841844 0.028269
vt 0.819333 0.021440
vt 0.796822 0.014612
vt 0.773411 0.012306
vt 0.750000 0.010000
vt 0.726589 0.012306
vt 0.703178 0.014612
vt 0.680667 0.021440
vt 0.658156 0.028269
vt 0.637410 0.039358
vt 0.616663 0.050447
vt 0.598479 0.065371
vt 0.580294 0.080294
vt 0.565371 0.098479
vt 0.550447 0.116663
vt 0.539358 0.137410
vt 0.528269 0.158156
vt 0.521440 0.180667
vt 0.514612 0.203178
vt 0.512306 0.226589
vt 0.510000 0.250000
vt 0.512306 0.273411
vt 0.514612 0.296822
vt 0.521440 0.319333
vt 0.528269 0.341844
vt 0.539358 0.362590
vt 0.550447 0.383337
vt 0.565371 0.401521
vt 0.580294 0.419706
vt 0.598479 0.434629
vt 0.616663 0.449553
vt 0.637410 0.460642
vt 0.658156 0.471731
vt 0.680667 0.478560
vt 0.703178 0.485388
vt 0.726589 0.487694
vt 0.015625 0.500000
vt 0.000000 0.500000
vt 0.031250 0.500000
vt 0.046875 0.500000
vt 0.062500 0.500000
vt 0.078125 0.500000
vt 0.093750 0.500000
vt 0.109375 0.500000
vt 0.125000 0.500000
vt 0.140625 0.500000
vt 0.156250 0.500000
vt 0.171875 0.500000
vt 0.187500 0.500000
vt 0.203125 0.500000
vt 0.218750 0.500000
vt 0.234375 0.500000
vt 0.250000 0.500000
vt 0.265625 0.500000
vt 0.281250 0.500000
vt 0.296875 0.500000
vt 0.312500 0.500000
vt 0.328125 0.500000
vt 0.343750 0.500000
vt 0.359375 0.500000
vt 0.375000 0.500000
vt 0.390625 0.500000
vt 0.406250 0.500000
vt 0.421875 0.500000
vt 0.437500 0.500000
vt 0.453125 0.500000
vt 0.468750 0.500000
vt 0.484375 0.500000
vt 0.500000 0.500000
vt 0.515625 0.500000
vt 0.531250 0.500000
vt 0.546875 0.500000
vt 0.562500 0.500000
vt 0.578125 0.500000
vt 0.593750 0.500000
vt 0.609375 0.500000
vt 0.625000 0.500000
vt 0.640625 0.500000
vt 0.656250 0.500000
vt 0.671875 0.500000
vt 0.687500 0.500000
vt 0.703125 0.500000
vt 0.718750 0.500000
vt 0.734375 0.500000
vt 0.750000 0.500000
vt 0.765625 0.500000
vt 0.781250 0.500000
vt 0.796875 0.500000
vt 0.812500 0.500000
vt 0.828125 0.500000
vt 0.843750 0.500000
vt 0.859375 0.500000
vt 0.875000 0.500000
vt 0.890625 0.500000
vt 0.906250 0.500000
vt 0.921875 0.500000
vt 0.937500 0.500000
vt 0.953125 0.500000
vt 0.968750 0.500000
vt 0.984375 0.500000
vt 1.000000 0.500000
vt 1.000000 0.750000
vt 1.000000 1.000000
s 0
f 192/1/1 66/2/1 4/3/1 68/4/1
f 191/5/2 70/6/2 6/7/2 71/8/2
f 190/9/3 73/10/3 8/11/3 74/12/3
f 189/13/4 76/14/4 10/15/4 77/16/4
f 188/17/5 79/18/5 12/19/5 80/20/5
f 187/21/6 82/22/6 14/23/6 83/24/6
f 186/25/7 85/26/7 16/27/7 86/28/7
f 185/29/8 88/30/8 18/31/8 89/32/8
f 184/33/9 91/34/9 20/35/9 92/36/9
f 183/37/10 94/38/10 22/39/10 95/40/10
f 182/41/11 97/42/11 24/43/11 98/44/11
f 181/45/12 100/46/12 26/47/12 101/48/12
f 180/49/13 103/50/13 28/51/13 104/52/13
f 179/53/14 106/54/14 30/55/14 107/56/14
f 178/57/15 109/58/15 32/59/15 110/60/15
f 177/61/16 112/62/16 34/63/16 113/64/16
f 176/65/17 115/66/17 36/67/17 116/68/17
f 175/69/18 118/70/18 38/71/18 119/72/18
f 174/73/19 121/74/19 40/75/19 122/76/19
f 173/77/20 124/78/20 42/79/20 125/80/20
f 172/81/21 127/82/21 44/83/21 128/84/21
f 171/85/22 130/86/22 46/87/22 131/88/22
f 170/89/23 133/90/23 48/91/23 134/92/23
f 169/93/24 136/94/24 50/95/24 137/96/24
f 168/97/25 139/98/25 52/99/25 140/100/25
f 167/101/26 142/102/26 54/103/26 143/104/26
f 166/105/27 145/106/27 56/107/27 146/108/27
f 165/109/28 148/110/28 58/111/28 149/112/28
f 164/113/29 151/114/29 60/115/29 152/116/29
f 163/117/30 154/118/30 62/119/30 155/120/30
f 4/121/31 66/122/31 2/123/31 160/124/31 64/125/31 157/126/31 62/127/31 154/128/31 60/129/31 151/130/31 58/131/31 148/132/31 56/133/31 145/134/31 54/135/31 142/136/31 52/137/31 139/138/31 50/139/31 136/140/31 48/141/31 133/142/31 46/143/31 130/144/31 44/145/31 127/146/31 42/147/31 124/148/31 40/149/31 121/150/31 38/151/31 118/152/31 36/153/31 115/154/31 34/155/31 112/156/31 32/157/31 109/158/31 30/159/31 106/160/31 28/161/31 103/162/31 26/163/31 100/164/31 24/165/31 97/166/31 22/167/31 94/168/31 20/169/31 91/170/31 18/171/31 88/172/31 16/173/31 85/174/31 14/175/31 82/176/31 12/177/31 79/178/31 10/179/31 76/180/31 8/181/31 73/182/31 6/183/31 70/184/31
f 162/185/32 157/186/32 64/187/32 158/188/32
f 161/189/33 160/190/33 2/191/33 67/192/33
f 1/193/34 65/194/34 3/195/34 69/196/34 5/197/34 72/198/34 7/199/34 75/200/34 9/201/34 78/202/34 11/203/34 81/204/34 13/205/34 84/206/34 15/207/34 87/208/34 17/209/34 90/210/34 19/211/34 93/212/34 21/213/34 96/214/34 23/215/34 99/216/34 25/217/34 102/218/34 27/219/34 105/220/34 29/221/34 108/222/34 31/223/34 111/224/34 33/225/34 114/226/34 35/227/34 117/228/34 37/229/34 120/230/34 39/231/34 123/232/34 41/233/34 126/234/34 43/235/34 129/236/34 45/237/34 132/238/34 47/239/34 135/240/34 49/241/34 138/242/34 51/243/34 141/244/34 53/245/34 144/246/34 55/247/34 147/248/34 57/249/34 150/250/34 59/251/34 153/252/34 61/253/34 156/254/34 63/255/34 159/256/34
f 159/257/35 161/189/35 67/192/35 1/258/35
f 63/259/36 158/188/36 161/189/36 159/257/36
f 158/188/37 64/187/37 160/190/37 161/189/37
f 156/260/38 162/185/38 158/188/38 63/259/38
f 61/261/39 155/120/39 162/185/39 156/260/39
f 155/120/40 62/119/40 157/186/40 162/185/40
f 153/262/41 163/117/41 155/120/41 61/261/41
f 59/263/42 152/116/42 163/117/42 153/262/42
f 152/116/43 60/115/43 154/118/43 163/117/43
f 150/264/44 164/113/44 152/116/44 59/263/44
f 57/265/45 149/112/45 164/113/45 150/264/45
f 149/112/46 58/111/46 151/114/46 164/113/46
f 147/266/47 165/109/47 149/112/47 57/265/47
f 55/267/48 146/108/48 165/109/48 147/266/48
f 146/108/49 56/107/49 148/110/49 165/109/49
f 144/268/50 166/105/50 146/108/50 55/267/50
f 53/269/51 143/104/51 166/105/51 144/268/51
f 143/104/52 54/103/52 145/106/52 166/105/52
f 141/270/53 167/101/53 143/104/53 53/269/53
f 51/271/54 140/100/54 167/101/54 141/270/54
f 140/100/55 52/99/55 142/102/55 167/101/55
f 138/272/56 168/97/56 140/100/56 51/271/56
f 49/273/57 137/96/57 168/97/57 138/272/57
f 137/96/58 50/95/58 139/98/58 168/97/58
f 135/274/59 169/93/59 137/96/59 49/273/59
f 47/275/60 134/92/60 169/93/60 135/274/60
f 134/92/61 48/91/61 136/94/61 169/93/61
f 132/276/62 170/89/62 134/92/62 47/275/62
f 45/277/63 131/88/63 170/89/63 132/276/63
f 131/88/64 46/87/64 133/90/64 170/89/64
f 129/278/65 171/85/65 131/88/65 45/277/65
f 43/279/66 128/84/66 171/85/66 129/278/66
f 128/84/67 44/83/67 130/86/67 171/85/67
f 126/280/68 172/81/68 128/84/68 43/279/68
f 41/281/69 125/80/69 172/81/69 126/280/69
f 125/80/70 42/79/70 127/82/70 172/81/70
f 123/282/71 173/77/71 125/80/71 41/281/71
f 39/283/72 122/76/72 173/77/72 123/282/72
f 122/76/73 40/75/73 124/78/73 173/77/73
f 120/284/74 174/73/74 122/76/74 39/283/74
f 37/285/75 119/72/75 174/73/75 120/284/75
f 119/72/76 38/71/76 121/74/76 174/73/76
f 117/286/77 175/69/77 119/72/77 37/285/77
f 35/287/78 116/68/78 175/69/78 117/286/78
f 116/68/79 36/67/79 118/70/79 175/69/79
f 114/288/80 176/65/80 116/68/80 35/287/80
f 33/289/81 113/64/81 176/65/81 114/288/81
f 113/64/82 34/63/82 115/66/82 176/65/82
f 111/290/83 177/61/83 113/64/83 33/289/83
f 31/291/84 110/60/84 177/61/84 111/290/84
f 110/60/85 32/59/85 112/62/85 177/61/85
f 108/292/86 178/57/86 110/60/86 31/291/86
f 29/293/87 107/56/87 178/57/87 108/292/87
f 107/56/88 30/55/88 109/58/88 178/57/88
f 105/294/89 179/53/89 107/56/89 29/293/89
f 27/295/90 104/52/90 179/53/90 105/294/90
f 104/52/91 28/51/91 106/54/91 179/53/91
f 102/296/92 180/49/92 104/52/92 27/295/92
f 25/297/93 101/48/93 180/49/93 102/296/93
f 101/48/94 26/47/94 103/50/94 180/49/94
f 99/298/95 181/45/95 101/48/95 25/297/95
f 23/299/96 98/44/96 181/45/96 99/298/96
f 98/44/97 24/43/97 100/46/97 181/45/97
f 96/300/98 182/41/98 98/44/98 23/299/98
f 21/301/99 95/40/99 182/41/99 96/300/99
f 95/40/100 22/39/100 97/42/100 182/41/100
f 93/302/101 183/37/101 95/40/101 21/301/101
f 19/303/102 92/36/102 183/37/102 93/302/102
f 92/36/103 20/35/103 94/38/103 183/37/103
f 90/304/104 184/33/104 92/36/104 19/303/104
f 17/305/105 89/32/105 184/33/105 90/304/105
f 89/32/106 18/31/106 91/34/106 184/33/106
f 87/306/107 185/29/107 89/32/107 17/305/107
f 15/307/108 86/28/108 185/29/108 87/306/108
f 86/28/109 16/27/109 88/30/109 185/29/109
f 84/308/110 186/25/110 86/28/110 15/307/110
f 13/309/111 83/24/111 186/25/111 84/308/111
f 83/24/112 14/23/112 85/26/112 186/25/112
f 81/310/113 187/21/113 83/24/113 13/309/113
f 11/311/114 80/20/114 187/21/114 81/310/114
f 80/20/115 12/19/115 82/22/115 187/21/115
f 78/312/116 188/17/116 80/20/116 11/311/116
f 9/313/117 77/16/117 188/17/117 78/312/117
f 77/16/118 10/15/118 79/18/118 188/17/118
f 75/314/119 189/13/119 77/16/119 9/313/119
f 7/315/120 74/12/120 189/13/120 75/314/120
f 74/12/121 8/11/121 76/14/121 189/13/121
f 72/316/122 190/9/122 74/12/122 7/315/122
f 5/317/123 71/8/123 190/9/123 72/316/123
f 71/8/124 6/7/124 73/10/124 190/9/124
f 69/318/125 191/5/125 71/8/125 5/317/125
f 3/319/126 68/4/126 191/5/126 69/318/126
f 68/4/127 4/3/127 70/6/127 191/5/127
f 65/320/128 192/1/128 68/4/128 3/319/128
f 1/321/129 67/322/129 192/1/129 65/320/129
f 67/322/130 2/323/130 66/2/130 192/1/130
